<?xml version="1.0" encoding="utf-8"?>
<!-- Generator: Adobe Illustrator 16.0.0, SVG Export Plug-In . SVG Version: 6.00 Build 0)  -->
<!DOCTYPE svg PUBLIC "-//W3C//DTD SVG 1.1//EN" "http://www.w3.org/Graphics/SVG/1.1/DTD/svg11.dtd">
<svg version="1.1" xmlns="http://www.w3.org/2000/svg" xmlns:xlink="http://www.w3.org/1999/xlink" x="0px" y="0px" width="960px"
	 height="560px" viewBox="0 0 960 560" style="enable-background:new 0 0 960 560;" xml:space="preserve">
<style type="text/css">
<![CDATA[
	.st0{fill:none;stroke:#FFFFFF;stroke-width:15;stroke-linecap:round;stroke-miterlimit:10;}
	.st1{fill:none;stroke:#9E005D;stroke-width:5;stroke-linecap:round;stroke-miterlimit:10;}
	.st2{fill:#4DB6AC;}
	.st3{fill:#4DD0E1;}
	.st4{fill:#4FC3F7;}
	.st5{enable-background:new    ;}
	.st6{fill:none;stroke:#FFFFFF;stroke-width:4;stroke-linecap:round;stroke-miterlimit:10;}
	.st7{clip-path:url(#SVGID_4_);}
	.st8{fill:#93278F;}
	.st9{fill:#9575CD;}
	.st10{fill:#FBB03B;stroke:#CCCCCC;stroke-miterlimit:10;}
	.st11{fill:none;stroke:#FBB03B;stroke-width:4;stroke-miterlimit:10;}
	.st12{fill:#FFFFFF;}
	.st13{fill:#64B5F6;}
	.st14{fill:#9E005D;stroke:#9E005D;stroke-miterlimit:10;}
	.st15{clip-path:url(#SVGID_12_);}
	.st16{clip-path:url(#SVGID_46_);}
	.st17{clip-path:url(#SVGID_56_);}
	.st18{clip-path:url(#SVGID_57_);}
	.st19{fill:#7986CB;}
	.st20{fill:none;stroke:#FBB03B;stroke-miterlimit:10;}
	.st21{fill:none;stroke:#000000;stroke-width:0.25;stroke-miterlimit:10;}
]]>
</style>
<g id="Layer_1">
	<circle class="st10" cx="467" cy="282" r="217"/>
	<g>
		<path class="st0" d="M537.7,163c16.5,32.2,23,67,9.9,99.8c-12.2,31.8-44.1,61.6-83.4,60.6c-39.3,1-71.1-28.8-83.4-60.6
			c-13.1-32.8-6.6-67.6,9.9-99.8"/>
	</g>
	<line class="st6" x1="448.3" y1="163" x2="440.2" y2="201.3"/>
	<line class="st6" x1="477.2" y1="163" x2="485.3" y2="201.3"/>
	<g>
		<path class="st12" d="M364.8,347.5h4.6v52.7h-4.6V347.5z M394.9,396.1v4.1h-23.5v-4.1H394.9z"/>
		<path class="st12" d="M404.1,347.5h4.5v52.7h-4.5V347.5z"/>
		<path class="st12" d="M444.5,397v4.1c-14.1-0.9-24.8-11.7-24.8-27.2c0-15.5,10.7-26.2,24.8-27.2v4.1c-11.5,0.9-20.1,10-20.1,23.1
			C424.4,386.8,433,396,444.5,397z M466.3,377.4h-21.8v-4h21.8V377.4z M446.4,350.7v-4.1c8.3,0.1,14.7,3.7,19.1,9.3l-3.8,2.4
			C458.5,353.8,452.7,350.8,446.4,350.7z M446.4,401.1V397c5.9,0,12.2-2.5,15.5-6.6V379h4.3v13.5
			C461.4,398.1,454.7,401.1,446.4,401.1z"/>
		<path class="st12" d="M482.3,371.2h31.4v4.1h-35.8v-27.8h4.4V371.2z M482.3,377.3v22.9h-4.4v-22.9H482.3z M515.6,347.5h4.4v52.7
			h-4.4V347.5z"/>
		<path class="st12" d="M544.7,351.6h-15.3v-4.1h15.3V351.6z M551.2,347.5v52.7h-4.5v-52.7H551.2z M568.4,347.5v4.1h-15.2v-4.1
			H568.4z"/>
	</g>
</g>
<g id="Layer_2">
</g>
<g id="Layer_3">
</g>
</svg>
