<?xml version="1.0" encoding="utf-8"?>
<!-- Generator: Adobe Illustrator 16.0.0, SVG Export Plug-In . SVG Version: 6.00 Build 0)  -->
<!DOCTYPE svg PUBLIC "-//W3C//DTD SVG 1.1//EN" "http://www.w3.org/Graphics/SVG/1.1/DTD/svg11.dtd">
<svg version="1.1" id="Layer_1" xmlns="http://www.w3.org/2000/svg" xmlns:xlink="http://www.w3.org/1999/xlink" x="0px" y="0px"
	 width="256px" height="256px" viewBox="0 0 256 256" enable-background="new 0 0 256 256" xml:space="preserve">
<title>Config</title>
<desc>A line styled icon from Orion Icon Library.</desc>
<circle fill="none" stroke="#FA990E" stroke-width="5" stroke-linecap="round" stroke-miterlimit="10" cx="104" cy="152" r="36"/>
<circle fill="none" stroke="#FA990E" stroke-width="5" stroke-linecap="round" stroke-miterlimit="10" cx="180" cy="76" r="24"/>
<path fill="none" stroke="#FA990E" stroke-width="5" stroke-linecap="round" stroke-miterlimit="10" d="M120,64v-2
	c0-3.314-2.687-6-6-6H94c-3.313,0-6,2.686-6,6v15.72c-8.966,1.93-17.505,5.477-25.2,10.468l-11.14-11.14
	c-2.343-2.342-6.141-2.342-8.484,0L29.048,91.2c-2.342,2.343-2.342,6.141,0,8.484l11.14,11.116
	c-4.991,7.694-8.539,16.234-10.468,25.2H14c-3.313,0-6,2.686-6,6v20c0,3.314,2.687,6,6,6h15.72c1.93,8.967,5.477,17.506,10.468,25.2
	l-11.14,11.128c-2.342,2.343-2.342,6.141,0,8.484l14.152,14.14c2.343,2.343,6.141,2.343,8.484,0L62.8,215.816
	c7.695,4.989,16.234,8.535,25.2,10.463V242c0,3.314,2.687,6,6,6l0,0h20c3.313,0,6-2.686,6-6l0,0v-15.721
	c8.967-1.93,17.506-5.477,25.2-10.467l11.14,11.14c2.344,2.343,6.141,2.343,8.484,0l14.128-14.152c2.343-2.343,2.343-6.141,0-8.483
	L167.816,193.2c4.989-7.694,8.535-16.234,10.463-25.2H194c3.314,0,6-2.686,6-6v-20c0-3.314-2.686-6-6-6h-2"/>
<path fill="none" stroke="#FA990E" stroke-width="5" stroke-linecap="round" stroke-miterlimit="10" d="M242,64h-11.447
	c-1.328-5.616-3.588-10.971-6.685-15.84l8-8c2.343-2.343,2.343-6.141,0-8.484l-7.556-7.532c-2.344-2.342-6.142-2.342-8.484,0l-8,8
	c-4.865-3.101-10.215-5.364-15.828-6.696V14c0-3.314-2.687-6-6-6h-12c-3.313,0-6,2.686-6,6v11.448
	c-5.616,1.328-10.971,3.587-15.84,6.684l-8-8c-2.344-2.342-6.141-2.342-8.484,0l-7.532,7.556c-2.342,2.343-2.342,6.141,0,8.484l8,8
	c-3.102,4.865-5.364,10.215-6.697,15.828H118c-3.313,0-6,2.686-6,6v12c0,3.314,2.687,6,6,6h11.447
	c1.328,5.616,3.588,10.971,6.685,15.84l-8,8c-2.342,2.343-2.342,6.141,0,8.484l7.544,7.544c2.344,2.343,6.141,2.343,8.484,0l8-8
	c4.869,3.097,10.224,5.356,15.84,6.684V138c0,3.314,2.687,6,6,6h12c3.313,0,6-2.686,6-6v-11.448
	c5.616-1.328,10.971-3.587,15.84-6.684l8,8c2.344,2.343,6.141,2.343,8.484,0l7.544-7.544c2.343-2.343,2.343-6.141,0-8.484l-8-8
	c3.097-4.869,5.356-10.224,6.685-15.84H242c3.314,0,6-2.686,6-6V70C248,66.686,245.314,64,242,64z"/>
</svg>
