<?xml version="1.0" encoding="utf-8"?>
<!-- Generator: Adobe Illustrator 16.0.0, SVG Export Plug-In . SVG Version: 6.00 Build 0)  -->
<!DOCTYPE svg PUBLIC "-//W3C//DTD SVG 1.1//EN" "http://www.w3.org/Graphics/SVG/1.1/DTD/svg11.dtd">
<svg version="1.1" id="Layer_1" xmlns="http://www.w3.org/2000/svg" xmlns:xlink="http://www.w3.org/1999/xlink" x="0px" y="0px"
	 width="256px" height="256px" viewBox="0 0 256 256" enable-background="new 0 0 256 256" xml:space="preserve">
<title>Facebook</title>
<desc>A line styled icon from Orion Icon Library.</desc>
<path fill="#00B8D4" d="M225.5,8h-195C18.089,8.038,8.037,18.089,8,30.5v195c0.037,12.41,10.089,22.463,22.5,22.5h105v-97.5h-26.252
	V113H135.5V94.252c0.607-21.024,6.048-39.728,41.695-41.248h29.557v37.172h-24.988c-6.512-0.39-12.106,4.573-12.496,11.085
	c-0.01,0.165-0.017,0.33-0.02,0.495V113h37.5l-6.4,37.5h-31.1V248H225.5c12.41-0.037,22.463-10.089,22.5-22.5v-195
	C247.963,18.089,237.91,8.038,225.5,8z"/>
</svg>
