<?xml version="1.0" encoding="utf-8"?>
<!-- Generator: Adobe Illustrator 16.0.0, SVG Export Plug-In . SVG Version: 6.00 Build 0)  -->
<!DOCTYPE svg PUBLIC "-//W3C//DTD SVG 1.1//EN" "http://www.w3.org/Graphics/SVG/1.1/DTD/svg11.dtd">
<svg version="1.1" id="Layer_1" xmlns="http://www.w3.org/2000/svg" xmlns:xlink="http://www.w3.org/1999/xlink" x="0px" y="0px"
	 width="256px" height="256px" viewBox="0 0 256 256" enable-background="new 0 0 256 256" xml:space="preserve">
<title>Github</title>
<desc>A line styled icon from Orion Icon Library.</desc>
<path fill="#00B8D4" d="M128,7.808C61.684,7.844,7.954,61.633,7.99,127.95c0.028,51.671,33.11,97.531,82.134,113.859
	c6,1.123,8.252-2.625,8.252-5.625v-22.5c-33.376,7.116-40.5-14.252-40.5-14.252c-5.624-13.875-13.5-17.623-13.5-17.623
	c-10.876-7.5,0.748-7.125,0.748-7.125c12,0.752,18.376,12.377,18.376,12.377c10.876,18.375,28.124,13.123,34.876,10.123
	c0.527-6.089,3.183-11.797,7.5-16.123c-26.624-3-54.752-13.5-54.752-59.249c-0.221-11.95,4.217-23.518,12.376-32.252
	c-3.542-10.404-3.142-21.747,1.124-31.876c0,0,10.124-3.376,33,12.376c9.776-2.682,19.863-4.069,30-4.124
	c10.14,0.03,20.229,1.417,30,4.124c22.876-15.376,33-12.376,33-12.376c4.267,10.129,4.666,21.472,1.124,31.876
	c8.218,8.697,12.666,20.29,12.376,32.252c0,46.124-28.124,56.252-54.752,59.252c5.763,5.876,8.761,13.921,8.252,22.136v33
	c0,3.376,2.248,6.748,8.252,5.624c62.927-20.928,96.975-88.906,76.046-151.833C225.604,40.925,179.708,7.815,128,7.808z"/>
</svg>
